<?xml version="1.0" encoding="UTF-8"?>
<svg width="511px" height="345px" viewBox="0 0 511 345" version="1.1" xmlns="http://www.w3.org/2000/svg" xmlns:xlink="http://www.w3.org/1999/xlink">
    <!-- Generator: Sketch 49.3 (51167) - http://www.bohemiancoding.com/sketch -->
    <title>English Button not hover</title>
    <desc>Created with Sketch.</desc>
    <defs>
        <polygon id="path-1" points="0 0 506.151924 332.966822 0 332.966822"></polygon>
        <polygon id="path-3" points="506.151924 332.966822 0 0 506.151924 2.27373675e-13"></polygon>
    </defs>
    <g id="Page-1" stroke="none" stroke-width="1" fill="none" fill-rule="evenodd">
        <g id="English-Button-not-hover">
            <g id="Group-8" transform="translate(0.000000, 12.000000)">
                <mask id="mask-2" fill="white">
                    <use xlink:href="#path-1"></use>
                </mask>
                <g id="Triangle-3"></g>
                <g id="united-states" mask="url(#mask-2)">
                    <g transform="translate(-5.000000, -3.000000)">
                        <path d="M503.172,335.725 L8.828,335.725 C3.953,335.725 0,331.772 0,326.897 L0,9.104 C0,4.229 3.953,0.276 8.828,0.276 L503.173,0.276 C508.048,0.276 512.001,4.229 512.001,9.104 L512.001,326.897 C512,331.773 508.047,335.725 503.172,335.725 Z" id="Shape" fill="#F5F5F5" fill-rule="nonzero"></path>
                        <g id="Group" stroke-width="1" fill="none" fill-rule="evenodd">
                            <path d="M512.001,26.081 L0,26.081 L0,9.104 C0,4.229 3.953,0.276 8.828,0.276 L503.173,0.276 C508.048,0.276 512.001,4.229 512.001,9.104 L512.001,26.081 Z" id="Shape" fill="#FF4B55" fill-rule="nonzero"></path>
                            <rect id="Rectangle-path" fill="#FF4B55" fill-rule="nonzero" x="0" y="103.491" width="512" height="25.804"></rect>
                            <rect id="Rectangle-path" fill="#FF4B55" fill-rule="nonzero" x="0" y="51.881" width="512" height="25.804"></rect>
                            <path d="M512,180.903 L8.828,180.903 C3.953,180.903 0,176.95 0,172.075 L0,155.098 L512,155.098 L512,180.903 Z" id="Shape" fill="#FF4B55" fill-rule="nonzero"></path>
                            <rect id="Rectangle-path" fill="#FF4B55" fill-rule="nonzero" x="0" y="258.321" width="512" height="25.804"></rect>
                            <path d="M503.172,335.725 L8.828,335.725 C3.953,335.725 0,331.772 0,326.897 L0,309.921 L512,309.921 L512,326.898 C512,331.773 508.047,335.725 503.172,335.725 Z" id="Shape" fill="#FF4B55" fill-rule="nonzero"></path>
                            <rect id="Rectangle-path" fill="#FF4B55" fill-rule="nonzero" x="0" y="206.711" width="512" height="25.804"></rect>
                        </g>
                        <path d="M229.517,0.277 L8.828,0.277 C3.953,0.277 0,4.229 0,9.104 L0,172.074 C0,176.949 3.953,180.902 8.828,180.902 L229.518,180.902 C234.393,180.902 238.346,176.949 238.346,172.074 L238.346,9.104 C238.345,4.229 234.392,0.277 229.517,0.277 Z" id="Shape" fill="#41479B" fill-rule="nonzero"></path>
                        <g id="Group" stroke-width="1" fill="none" fill-rule="evenodd" transform="translate(14.000000, 19.000000)">
                            <path d="M10.789,1.538 L12.743,7.398 L18.92,7.445 C19.72,7.452 20.051,8.472 19.408,8.947 L14.439,12.617 L16.303,18.506 C16.545,19.268 15.676,19.9 15.025,19.434 L10,15.843 L4.975,19.435 C4.324,19.9 3.457,19.269 3.697,18.507 L5.561,12.618 L0.592,8.948 C-0.051,8.472 0.28,7.453 1.08,7.446 L7.257,7.399 L9.211,1.539 C9.463,0.779 10.535,0.779 10.789,1.538 Z" id="Shape" fill="#F5F5F5" fill-rule="nonzero"></path>
                            <path d="M10.789,32.192 L12.743,38.052 L18.92,38.099 C19.72,38.106 20.051,39.126 19.408,39.601 L14.439,43.271 L16.303,49.16 C16.545,49.922 15.676,50.554 15.025,50.088 L10,46.497 L4.975,50.089 C4.324,50.554 3.457,49.923 3.697,49.161 L5.561,43.272 L0.592,39.602 C-0.051,39.126 0.28,38.107 1.08,38.1 L7.257,38.053 L9.211,32.193 C9.463,31.434 10.535,31.434 10.789,32.192 Z" id="Shape" fill="#F5F5F5" fill-rule="nonzero"></path>
                            <path d="M10.789,62.846 L12.743,68.706 L18.92,68.753 C19.72,68.76 20.051,69.78 19.408,70.255 L14.439,73.925 L16.303,79.814 C16.545,80.576 15.676,81.208 15.025,80.742 L10,77.151 L4.975,80.743 C4.324,81.208 3.457,80.577 3.697,79.815 L5.561,73.926 L0.592,70.256 C-0.051,69.78 0.28,68.761 1.08,68.754 L7.257,68.707 L9.211,62.847 C9.463,62.088 10.535,62.088 10.789,62.846 Z" id="Shape" fill="#F5F5F5" fill-rule="nonzero"></path>
                            <path d="M10.789,93.501 L12.743,99.361 L18.92,99.408 C19.72,99.415 20.051,100.435 19.408,100.91 L14.439,104.58 L16.303,110.469 C16.545,111.231 15.676,111.863 15.025,111.397 L10,107.806 L4.975,111.398 C4.324,111.863 3.457,111.232 3.697,110.47 L5.561,104.581 L0.592,100.911 C-0.051,100.435 0.28,99.416 1.08,99.409 L7.257,99.362 L9.211,93.502 C9.463,92.742 10.535,92.742 10.789,93.501 Z" id="Shape" fill="#F5F5F5" fill-rule="nonzero"></path>
                            <path d="M10.789,124.155 L12.743,130.015 L18.92,130.062 C19.72,130.069 20.051,131.089 19.408,131.564 L14.439,135.234 L16.303,141.123 C16.545,141.885 15.676,142.517 15.025,142.051 L10,138.46 L4.975,142.052 C4.324,142.517 3.457,141.886 3.697,141.124 L5.561,135.235 L0.592,131.565 C-0.051,131.089 0.28,130.07 1.08,130.063 L7.257,130.016 L9.211,124.156 C9.463,123.395 10.535,123.395 10.789,124.155 Z" id="Shape" fill="#F5F5F5" fill-rule="nonzero"></path>
                            <path d="M34.582,16.567 L36.536,22.427 L42.713,22.474 C43.513,22.481 43.844,23.501 43.201,23.976 L38.232,27.646 L40.096,33.535 C40.338,34.297 39.469,34.929 38.818,34.463 L33.793,30.871 L28.768,34.463 C28.117,34.928 27.25,34.297 27.49,33.535 L29.354,27.646 L24.385,23.976 C23.742,23.5 24.073,22.481 24.873,22.474 L31.05,22.427 L33.004,16.567 C33.255,15.809 34.329,15.809 34.582,16.567 Z" id="Shape" fill="#F5F5F5" fill-rule="nonzero"></path>
                            <path d="M34.582,47.222 L36.536,53.082 L42.713,53.129 C43.513,53.136 43.844,54.156 43.201,54.631 L38.232,58.301 L40.096,64.19 C40.338,64.952 39.469,65.584 38.818,65.118 L33.793,61.526 L28.768,65.118 C28.117,65.583 27.25,64.953 27.49,64.19 L29.354,58.301 L24.385,54.631 C23.742,54.155 24.073,53.136 24.873,53.129 L31.05,53.082 L33.004,47.222 C33.255,46.463 34.329,46.463 34.582,47.222 Z" id="Shape" fill="#F5F5F5" fill-rule="nonzero"></path>
                            <path d="M34.582,77.876 L36.536,83.736 L42.713,83.783 C43.513,83.79 43.844,84.81 43.201,85.285 L38.232,88.955 L40.096,94.844 C40.338,95.606 39.469,96.238 38.818,95.772 L33.793,92.18 L28.768,95.772 C28.117,96.237 27.25,95.606 27.49,94.844 L29.354,88.955 L24.385,85.285 C23.742,84.809 24.073,83.79 24.873,83.783 L31.05,83.736 L33.004,77.876 C33.255,77.117 34.329,77.117 34.582,77.876 Z" id="Shape" fill="#F5F5F5" fill-rule="nonzero"></path>
                            <path d="M34.582,108.53 L36.536,114.39 L42.713,114.437 C43.513,114.444 43.844,115.464 43.201,115.939 L38.232,119.609 L40.096,125.498 C40.338,126.26 39.469,126.892 38.818,126.426 L33.793,122.834 L28.768,126.426 C28.117,126.891 27.25,126.26 27.49,125.498 L29.354,119.609 L24.385,115.939 C23.742,115.463 24.073,114.444 24.873,114.437 L31.05,114.39 L33.004,108.53 C33.255,107.772 34.329,107.772 34.582,108.53 Z" id="Shape" fill="#F5F5F5" fill-rule="nonzero"></path>
                            <path d="M58.375,1.538 L60.329,7.398 L66.506,7.445 C67.306,7.452 67.637,8.472 66.994,8.947 L62.025,12.617 L63.889,18.506 C64.131,19.268 63.262,19.9 62.611,19.434 L57.586,15.842 L52.561,19.434 C51.91,19.899 51.043,19.268 51.283,18.506 L53.147,12.617 L48.178,8.947 C47.535,8.471 47.866,7.452 48.666,7.445 L54.843,7.398 L56.797,1.538 C57.049,0.779 58.122,0.779 58.375,1.538 Z" id="Shape" fill="#F5F5F5" fill-rule="nonzero"></path>
                            <path d="M58.375,32.192 L60.329,38.052 L66.506,38.099 C67.306,38.106 67.637,39.126 66.994,39.601 L62.025,43.271 L63.889,49.16 C64.131,49.922 63.262,50.554 62.611,50.088 L57.586,46.496 L52.561,50.088 C51.91,50.553 51.043,49.922 51.283,49.16 L53.147,43.271 L48.178,39.601 C47.535,39.125 47.866,38.106 48.666,38.099 L54.843,38.052 L56.797,32.192 C57.049,31.434 58.122,31.434 58.375,32.192 Z" id="Shape" fill="#F5F5F5" fill-rule="nonzero"></path>
                            <path d="M58.375,62.846 L60.329,68.706 L66.506,68.753 C67.306,68.76 67.637,69.78 66.994,70.255 L62.025,73.925 L63.889,79.814 C64.131,80.576 63.262,81.208 62.611,80.742 L57.586,77.15 L52.561,80.742 C51.91,81.207 51.043,80.576 51.283,79.814 L53.147,73.925 L48.178,70.255 C47.535,69.779 47.866,68.76 48.666,68.753 L54.843,68.706 L56.797,62.846 C57.049,62.088 58.122,62.088 58.375,62.846 Z" id="Shape" fill="#F5F5F5" fill-rule="nonzero"></path>
                            <path d="M58.375,93.501 L60.329,99.361 L66.506,99.408 C67.306,99.415 67.637,100.435 66.994,100.91 L62.025,104.58 L63.889,110.469 C64.131,111.231 63.262,111.863 62.611,111.397 L57.586,107.805 L52.561,111.397 C51.91,111.862 51.043,111.231 51.283,110.469 L53.147,104.58 L48.178,100.91 C47.535,100.434 47.866,99.415 48.666,99.408 L54.843,99.361 L56.797,93.501 C57.049,92.742 58.122,92.742 58.375,93.501 Z" id="Shape" fill="#F5F5F5" fill-rule="nonzero"></path>
                            <path d="M58.375,124.155 L60.329,130.015 L66.506,130.062 C67.306,130.069 67.637,131.089 66.994,131.564 L62.025,135.234 L63.889,141.123 C64.131,141.885 63.262,142.517 62.611,142.051 L57.586,138.459 L52.561,142.051 C51.91,142.516 51.043,141.885 51.283,141.123 L53.147,135.234 L48.178,131.564 C47.535,131.088 47.866,130.069 48.666,130.062 L54.843,130.015 L56.797,124.155 C57.049,123.395 58.122,123.395 58.375,124.155 Z" id="Shape" fill="#F5F5F5" fill-rule="nonzero"></path>
                            <path d="M82.169,16.567 L84.123,22.427 L90.3,22.474 C91.1,22.481 91.431,23.501 90.788,23.976 L85.819,27.646 L87.683,33.535 C87.925,34.297 87.056,34.929 86.405,34.463 L81.38,30.871 L76.355,34.463 C75.704,34.928 74.837,34.297 75.077,33.535 L76.941,27.646 L71.972,23.976 C71.329,23.5 71.66,22.481 72.46,22.474 L78.637,22.427 L80.591,16.567 C80.842,15.809 81.916,15.809 82.169,16.567 Z" id="Shape" fill="#F5F5F5" fill-rule="nonzero"></path>
                            <path d="M82.169,47.222 L84.123,53.082 L90.3,53.129 C91.1,53.136 91.431,54.156 90.788,54.631 L85.819,58.301 L87.683,64.19 C87.925,64.952 87.056,65.584 86.405,65.118 L81.38,61.526 L76.355,65.118 C75.704,65.583 74.837,64.953 75.077,64.19 L76.941,58.301 L71.972,54.631 C71.329,54.155 71.66,53.136 72.46,53.129 L78.637,53.082 L80.591,47.222 C80.842,46.463 81.916,46.463 82.169,47.222 Z" id="Shape" fill="#F5F5F5" fill-rule="nonzero"></path>
                            <path d="M82.169,77.876 L84.123,83.736 L90.3,83.783 C91.1,83.79 91.431,84.81 90.788,85.285 L85.819,88.955 L87.683,94.844 C87.925,95.606 87.056,96.238 86.405,95.772 L81.38,92.18 L76.355,95.772 C75.704,96.237 74.837,95.606 75.077,94.844 L76.941,88.955 L71.972,85.285 C71.329,84.809 71.66,83.79 72.46,83.783 L78.637,83.736 L80.591,77.876 C80.842,77.117 81.916,77.117 82.169,77.876 Z" id="Shape" fill="#F5F5F5" fill-rule="nonzero"></path>
                            <path d="M82.169,108.53 L84.123,114.39 L90.3,114.437 C91.1,114.444 91.431,115.464 90.788,115.939 L85.819,119.609 L87.683,125.498 C87.925,126.26 87.056,126.892 86.405,126.426 L81.38,122.834 L76.355,126.426 C75.704,126.891 74.837,126.26 75.077,125.498 L76.941,119.609 L71.972,115.939 C71.329,115.463 71.66,114.444 72.46,114.437 L78.637,114.39 L80.591,108.53 C80.842,107.772 81.916,107.772 82.169,108.53 Z" id="Shape" fill="#F5F5F5" fill-rule="nonzero"></path>
                            <path d="M105.962,1.538 L107.916,7.398 L114.093,7.445 C114.893,7.452 115.224,8.472 114.581,8.947 L109.612,12.617 L111.476,18.506 C111.718,19.268 110.849,19.9 110.198,19.434 L105.172,15.842 L100.147,19.434 C99.496,19.899 98.629,19.268 98.869,18.506 L100.733,12.617 L95.764,8.947 C95.121,8.471 95.452,7.452 96.252,7.445 L102.429,7.398 L104.383,1.538 C104.636,0.779 105.709,0.779 105.962,1.538 Z" id="Shape" fill="#F5F5F5" fill-rule="nonzero"></path>
                            <path d="M105.962,32.192 L107.916,38.052 L114.093,38.099 C114.893,38.106 115.224,39.126 114.581,39.601 L109.612,43.271 L111.476,49.16 C111.718,49.922 110.849,50.554 110.198,50.088 L105.172,46.496 L100.147,50.088 C99.496,50.553 98.629,49.922 98.869,49.16 L100.733,43.271 L95.764,39.601 C95.121,39.125 95.452,38.106 96.252,38.099 L102.429,38.052 L104.383,32.192 C104.636,31.434 105.709,31.434 105.962,32.192 Z" id="Shape" fill="#F5F5F5" fill-rule="nonzero"></path>
                            <path d="M105.962,62.846 L107.916,68.706 L114.093,68.753 C114.893,68.76 115.224,69.78 114.581,70.255 L109.612,73.925 L111.476,79.814 C111.718,80.576 110.849,81.208 110.198,80.742 L105.172,77.15 L100.147,80.742 C99.496,81.207 98.629,80.576 98.869,79.814 L100.733,73.925 L95.764,70.255 C95.121,69.779 95.452,68.76 96.252,68.753 L102.429,68.706 L104.383,62.846 C104.636,62.088 105.709,62.088 105.962,62.846 Z" id="Shape" fill="#F5F5F5" fill-rule="nonzero"></path>
                            <path d="M105.962,93.501 L107.916,99.361 L114.093,99.408 C114.893,99.415 115.224,100.435 114.581,100.91 L109.612,104.58 L111.476,110.469 C111.718,111.231 110.849,111.863 110.198,111.397 L105.172,107.805 L100.147,111.397 C99.496,111.862 98.629,111.231 98.869,110.469 L100.733,104.58 L95.764,100.91 C95.121,100.434 95.452,99.415 96.252,99.408 L102.429,99.361 L104.383,93.501 C104.636,92.742 105.709,92.742 105.962,93.501 Z" id="Shape" fill="#F5F5F5" fill-rule="nonzero"></path>
                            <path d="M105.962,124.155 L107.916,130.015 L114.093,130.062 C114.893,130.069 115.224,131.089 114.581,131.564 L109.612,135.234 L111.476,141.123 C111.718,141.885 110.849,142.517 110.198,142.051 L105.172,138.459 L100.147,142.051 C99.496,142.516 98.629,141.885 98.869,141.123 L100.733,135.234 L95.764,131.564 C95.121,131.088 95.452,130.069 96.252,130.062 L102.429,130.015 L104.383,124.155 C104.636,123.395 105.709,123.395 105.962,124.155 Z" id="Shape" fill="#F5F5F5" fill-rule="nonzero"></path>
                            <path d="M129.755,16.567 L131.709,22.427 L137.886,22.474 C138.686,22.481 139.017,23.501 138.374,23.976 L133.405,27.646 L135.269,33.535 C135.511,34.297 134.642,34.929 133.991,34.463 L128.966,30.871 L123.941,34.463 C123.29,34.928 122.423,34.297 122.663,33.535 L124.527,27.646 L119.558,23.976 C118.915,23.5 119.246,22.481 120.046,22.474 L126.223,22.427 L128.177,16.567 C128.43,15.809 129.502,15.809 129.755,16.567 Z" id="Shape" fill="#F5F5F5" fill-rule="nonzero"></path>
                            <path d="M129.755,47.222 L131.709,53.082 L137.886,53.129 C138.686,53.136 139.017,54.156 138.374,54.631 L133.405,58.301 L135.269,64.19 C135.511,64.952 134.642,65.584 133.991,65.118 L128.966,61.526 L123.941,65.118 C123.29,65.583 122.423,64.953 122.663,64.19 L124.527,58.301 L119.558,54.631 C118.915,54.155 119.246,53.136 120.046,53.129 L126.223,53.082 L128.177,47.222 C128.43,46.463 129.502,46.463 129.755,47.222 Z" id="Shape" fill="#F5F5F5" fill-rule="nonzero"></path>
                            <path d="M129.755,77.876 L131.709,83.736 L137.886,83.783 C138.686,83.79 139.017,84.81 138.374,85.285 L133.405,88.955 L135.269,94.844 C135.511,95.606 134.642,96.238 133.991,95.772 L128.966,92.18 L123.941,95.772 C123.29,96.237 122.423,95.606 122.663,94.844 L124.527,88.955 L119.558,85.285 C118.915,84.809 119.246,83.79 120.046,83.783 L126.223,83.736 L128.177,77.876 C128.43,77.117 129.502,77.117 129.755,77.876 Z" id="Shape" fill="#F5F5F5" fill-rule="nonzero"></path>
                            <path d="M129.755,108.53 L131.709,114.39 L137.886,114.437 C138.686,114.444 139.017,115.464 138.374,115.939 L133.405,119.609 L135.269,125.498 C135.511,126.26 134.642,126.892 133.991,126.426 L128.966,122.834 L123.941,126.426 C123.29,126.891 122.423,126.26 122.663,125.498 L124.527,119.609 L119.558,115.939 C118.915,115.463 119.246,114.444 120.046,114.437 L126.223,114.39 L128.177,108.53 C128.43,107.772 129.502,107.772 129.755,108.53 Z" id="Shape" fill="#F5F5F5" fill-rule="nonzero"></path>
                            <path d="M153.549,1.538 L155.503,7.398 L161.68,7.445 C162.48,7.452 162.811,8.472 162.168,8.947 L157.199,12.617 L159.063,18.506 C159.305,19.268 158.436,19.9 157.785,19.434 L152.76,15.842 L147.735,19.434 C147.084,19.899 146.217,19.268 146.457,18.506 L148.321,12.617 L143.352,8.947 C142.709,8.471 143.04,7.452 143.84,7.445 L150.017,7.398 L151.971,1.538 C152.222,0.779 153.296,0.779 153.549,1.538 Z" id="Shape" fill="#F5F5F5" fill-rule="nonzero"></path>
                            <path d="M153.549,32.192 L155.503,38.052 L161.68,38.099 C162.48,38.106 162.811,39.126 162.168,39.601 L157.199,43.271 L159.063,49.16 C159.305,49.922 158.436,50.554 157.785,50.088 L152.76,46.496 L147.735,50.088 C147.084,50.553 146.217,49.922 146.457,49.16 L148.321,43.271 L143.352,39.601 C142.709,39.125 143.04,38.106 143.84,38.099 L150.017,38.052 L151.971,32.192 C152.222,31.434 153.296,31.434 153.549,32.192 Z" id="Shape" fill="#F5F5F5" fill-rule="nonzero"></path>
                            <path d="M153.549,62.846 L155.503,68.706 L161.68,68.753 C162.48,68.76 162.811,69.78 162.168,70.255 L157.199,73.925 L159.063,79.814 C159.305,80.576 158.436,81.208 157.785,80.742 L152.76,77.15 L147.735,80.742 C147.084,81.207 146.217,80.576 146.457,79.814 L148.321,73.925 L143.352,70.255 C142.709,69.779 143.04,68.76 143.84,68.753 L150.017,68.706 L151.971,62.846 C152.222,62.088 153.296,62.088 153.549,62.846 Z" id="Shape" fill="#F5F5F5" fill-rule="nonzero"></path>
                            <path d="M153.549,93.501 L155.503,99.361 L161.68,99.408 C162.48,99.415 162.811,100.435 162.168,100.91 L157.199,104.58 L159.063,110.469 C159.305,111.231 158.436,111.863 157.785,111.397 L152.76,107.805 L147.735,111.397 C147.084,111.862 146.217,111.231 146.457,110.469 L148.321,104.58 L143.352,100.91 C142.709,100.434 143.04,99.415 143.84,99.408 L150.017,99.361 L151.971,93.501 C152.222,92.742 153.296,92.742 153.549,93.501 Z" id="Shape" fill="#F5F5F5" fill-rule="nonzero"></path>
                            <path d="M153.549,124.155 L155.503,130.015 L161.68,130.062 C162.48,130.069 162.811,131.089 162.168,131.564 L157.199,135.234 L159.063,141.123 C159.305,141.885 158.436,142.517 157.785,142.051 L152.76,138.459 L147.735,142.051 C147.084,142.516 146.217,141.885 146.457,141.123 L148.321,135.234 L143.352,131.564 C142.709,131.088 143.04,130.069 143.84,130.062 L150.017,130.015 L151.971,124.155 C152.222,123.395 153.296,123.395 153.549,124.155 Z" id="Shape" fill="#F5F5F5" fill-rule="nonzero"></path>
                            <path d="M177.342,16.567 L179.296,22.427 L185.473,22.474 C186.273,22.481 186.604,23.501 185.961,23.976 L180.992,27.646 L182.856,33.535 C183.098,34.297 182.229,34.929 181.578,34.463 L176.553,30.871 L171.528,34.463 C170.877,34.928 170.01,34.297 170.25,33.535 L172.114,27.646 L167.145,23.976 C166.502,23.5 166.833,22.481 167.633,22.474 L173.81,22.427 L175.764,16.567 C176.016,15.809 177.09,15.809 177.342,16.567 Z" id="Shape" fill="#F5F5F5" fill-rule="nonzero"></path>
                            <path d="M177.342,47.222 L179.296,53.082 L185.473,53.129 C186.273,53.136 186.604,54.156 185.961,54.631 L180.992,58.301 L182.856,64.19 C183.098,64.952 182.229,65.584 181.578,65.118 L176.553,61.526 L171.528,65.118 C170.877,65.583 170.01,64.953 170.25,64.19 L172.114,58.301 L167.145,54.631 C166.502,54.155 166.833,53.136 167.633,53.129 L173.81,53.082 L175.764,47.222 C176.016,46.463 177.09,46.463 177.342,47.222 Z" id="Shape" fill="#F5F5F5" fill-rule="nonzero"></path>
                            <path d="M177.342,77.876 L179.296,83.736 L185.473,83.783 C186.273,83.79 186.604,84.81 185.961,85.285 L180.992,88.955 L182.856,94.844 C183.098,95.606 182.229,96.238 181.578,95.772 L176.553,92.18 L171.528,95.772 C170.877,96.237 170.01,95.606 170.25,94.844 L172.114,88.955 L167.145,85.285 C166.502,84.809 166.833,83.79 167.633,83.783 L173.81,83.736 L175.764,77.876 C176.016,77.117 177.09,77.117 177.342,77.876 Z" id="Shape" fill="#F5F5F5" fill-rule="nonzero"></path>
                            <path d="M177.342,108.53 L179.296,114.39 L185.473,114.437 C186.273,114.444 186.604,115.464 185.961,115.939 L180.992,119.609 L182.856,125.498 C183.098,126.26 182.229,126.892 181.578,126.426 L176.553,122.834 L171.528,126.426 C170.877,126.891 170.01,126.26 170.25,125.498 L172.114,119.609 L167.145,115.939 C166.502,115.463 166.833,114.444 167.633,114.437 L173.81,114.39 L175.764,108.53 C176.016,107.772 177.09,107.772 177.342,108.53 Z" id="Shape" fill="#F5F5F5" fill-rule="nonzero"></path>
                            <path d="M201.136,1.538 L203.09,7.398 L209.267,7.445 C210.067,7.452 210.398,8.472 209.755,8.947 L204.786,12.617 L206.65,18.506 C206.892,19.268 206.023,19.9 205.372,19.434 L200.347,15.842 L195.322,19.434 C194.671,19.899 193.804,19.268 194.044,18.506 L195.908,12.617 L190.939,8.947 C190.296,8.471 190.627,7.452 191.427,7.445 L197.604,7.398 L199.558,1.538 C199.81,0.779 200.882,0.779 201.136,1.538 Z" id="Shape" fill="#F5F5F5" fill-rule="nonzero"></path>
                            <path d="M201.136,32.192 L203.09,38.052 L209.267,38.099 C210.067,38.106 210.398,39.126 209.755,39.601 L204.786,43.271 L206.65,49.16 C206.892,49.922 206.023,50.554 205.372,50.088 L200.347,46.496 L195.322,50.088 C194.671,50.553 193.804,49.922 194.044,49.16 L195.908,43.271 L190.939,39.601 C190.296,39.125 190.627,38.106 191.427,38.099 L197.604,38.052 L199.558,32.192 C199.81,31.434 200.882,31.434 201.136,32.192 Z" id="Shape" fill="#F5F5F5" fill-rule="nonzero"></path>
                            <path d="M201.136,62.846 L203.09,68.706 L209.267,68.753 C210.067,68.76 210.398,69.78 209.755,70.255 L204.786,73.925 L206.65,79.814 C206.892,80.576 206.023,81.208 205.372,80.742 L200.347,77.15 L195.322,80.742 C194.671,81.207 193.804,80.576 194.044,79.814 L195.908,73.925 L190.939,70.255 C190.296,69.779 190.627,68.76 191.427,68.753 L197.604,68.706 L199.558,62.846 C199.81,62.088 200.882,62.088 201.136,62.846 Z" id="Shape" fill="#F5F5F5" fill-rule="nonzero"></path>
                            <path d="M201.136,93.501 L203.09,99.361 L209.267,99.408 C210.067,99.415 210.398,100.435 209.755,100.91 L204.786,104.58 L206.65,110.469 C206.892,111.231 206.023,111.863 205.372,111.397 L200.347,107.805 L195.322,111.397 C194.671,111.862 193.804,111.231 194.044,110.469 L195.908,104.58 L190.939,100.91 C190.296,100.434 190.627,99.415 191.427,99.408 L197.604,99.361 L199.558,93.501 C199.81,92.742 200.882,92.742 201.136,93.501 Z" id="Shape" fill="#F5F5F5" fill-rule="nonzero"></path>
                            <path d="M201.136,124.155 L203.09,130.015 L209.267,130.062 C210.067,130.069 210.398,131.089 209.755,131.564 L204.786,135.234 L206.65,141.123 C206.892,141.885 206.023,142.517 205.372,142.051 L200.347,138.459 L195.322,142.051 C194.671,142.516 193.804,141.885 194.044,141.123 L195.908,135.234 L190.939,131.564 C190.296,131.088 190.627,130.069 191.427,130.062 L197.604,130.015 L199.558,124.155 C199.81,123.395 200.882,123.395 201.136,124.155 Z" id="Shape" fill="#F5F5F5" fill-rule="nonzero"></path>
                        </g>
                    </g>
                </g>
            </g>
            <g id="Group-7" transform="translate(4.000000, 0.000000)">
                <mask id="mask-4" fill="white">
                    <use xlink:href="#path-3"></use>
                </mask>
                <g id="Triangle-3"></g>
                <g id="united-kingdom-(2)" mask="url(#mask-4)" fill-rule="nonzero">
                    <path d="M503.172,335.725 L8.828,335.725 C3.953,335.725 0,331.772 0,326.897 L0,9.104 C0,4.229 3.953,0.276 8.828,0.276 L503.173,0.276 C508.048,0.276 512.001,4.229 512.001,9.104 L512.001,326.897 C512,331.772 508.047,335.725 503.172,335.725 Z" id="Shape" fill="#41479B"></path>
                    <path d="M512,9.104 C512,4.229 508.047,0.276 503.172,0.276 L463.677,0.276 L300.137,107.423 L300.137,0.276 L211.861,0.276 L211.861,107.423 L48.322,0.276 L8.828,0.276 C3.953,0.276 0,4.229 0,9.104 L0,31.935 L140.309,123.862 L0,123.862 L0,212.138 L140.309,212.138 L0,304.066 L0,326.897 C0,331.772 3.953,335.725 8.828,335.725 L48.323,335.725 L211.863,228.578 L211.863,335.725 L300.139,335.725 L300.139,228.578 L463.679,335.725 L503.174,335.725 C508.049,335.725 512.002,331.772 512.002,326.897 L512.002,304.066 L371.693,212.139 L512,212.139 L512,123.863 L371.691,123.863 L512,31.935 L512,9.104 Z" id="Shape" fill="#F5F5F5"></path>
                    <g id="Group" fill="#FF4B55">
                        <polygon id="Shape" points="512 141.518 282.483 141.518 282.483 0.276 229.517 0.276 229.517 141.518 0 141.518 0 194.483 229.517 194.483 229.517 335.725 282.483 335.725 282.483 194.483 512 194.483"></polygon>
                        <path d="M178.948,212.138 L0.25,328.135 C0.875,332.398 4.39,335.725 8.827,335.725 L20.986,335.725 L211.376,212.138 L178.948,212.139 L178.948,212.138 Z" id="Shape"></path>
                        <path d="M346.388,212.138 L313.96,212.138 L504.073,335.542 C508.504,335.07 512.001,331.452 512.001,326.896 L512.001,319.638 L346.388,212.138 Z" id="Shape"></path>
                        <path d="M0,18.849 L161.779,123.863 L194.207,123.863 L5.143,1.137 C2.123,2.54 0,5.555 0,9.104 L0,18.849 Z" id="Shape"></path>
                        <path d="M332.566,123.863 L511.693,7.586 C510.949,3.464 507.509,0.277 503.172,0.277 L490.525,0.277 L300.138,123.863 L332.566,123.863 Z" id="Shape"></path>
                    </g>
                </g>
            </g>
        </g>
    </g>
</svg>