<?xml version="1.0" encoding="UTF-8"?>
<svg width="513px" height="341px" viewBox="0 0 513 341" version="1.1" xmlns="http://www.w3.org/2000/svg" xmlns:xlink="http://www.w3.org/1999/xlink">
    <!-- Generator: Sketch 49.3 (51167) - http://www.bohemiancoding.com/sketch -->
    <title>Portugese Button not Hover</title>
    <desc>Created with Sketch.</desc>
    <defs>
        <polygon id="path-1" points="0 0 506.151924 332.966822 0 332.966822"></polygon>
        <polygon id="path-3" points="506.151924 332.966822 0 0 506.151924 2.27373675e-13"></polygon>
    </defs>
    <g id="Page-1" stroke="none" stroke-width="1" fill="none" fill-rule="evenodd">
        <g id="Portugese-Button-not-Hover">
            <g id="Group-3" transform="translate(0.000000, 8.000000)">
                <mask id="mask-2" fill="white">
                    <use xlink:href="#path-1"></use>
                </mask>
                <g id="Triangle-3"></g>
                <g id="portugal-(1)" mask="url(#mask-2)">
                    <g transform="translate(-3.000000, -1.000000)">
                        <path d="M503.172,335.725 L8.828,335.725 C3.953,335.725 0,331.772 0,326.897 L0,9.104 C0,4.229 3.953,0.276 8.828,0.276 L503.173,0.276 C508.048,0.276 512.001,4.229 512.001,9.104 L512.001,326.897 C512,331.773 508.047,335.725 503.172,335.725 Z" id="Shape" fill="#FF4B55" fill-rule="nonzero"></path>
                        <path d="M185.38,0.277 L8.828,0.277 C3.953,0.277 0,4.229 0,9.104 L0,326.897 C0,331.772 3.953,335.725 8.828,335.725 L185.38,335.725 L185.38,0.277 Z" id="Shape" fill="#73AF00" fill-rule="nonzero"></path>
                        <circle id="Oval" fill="#FFE15A" fill-rule="nonzero" cx="185.45" cy="168.001" r="79.38"></circle>
                        <path d="M211.932,141.518 L211.932,176.828 C211.932,191.431 200.052,203.311 185.449,203.311 C170.846,203.311 158.966,191.431 158.966,176.828 L158.966,141.518 L211.932,141.518 Z M220.759,123.863 L150.138,123.863 C145.263,123.863 141.31,127.816 141.31,132.691 L141.31,176.829 C141.31,201.205 161.072,220.967 185.448,220.967 C209.824,220.967 229.586,201.205 229.586,176.829 L229.586,132.691 C229.587,127.816 225.634,123.863 220.759,123.863 Z" id="Shape" fill="#FF4B55" fill-rule="nonzero"></path>
                        <path d="M211.932,141.518 L211.932,176.828 C211.932,191.431 200.052,203.311 185.449,203.311 C170.846,203.311 158.966,191.431 158.966,176.828 L158.966,141.518 L211.932,141.518" id="Shape" fill="#F5F5F5" fill-rule="nonzero"></path>
                        <g id="Group" stroke-width="1" fill="none" fill-rule="evenodd" transform="translate(145.000000, 128.000000)">
                            <circle id="Oval" fill="#FFE15A" fill-rule="nonzero" cx="5.07" cy="4.691" r="4.414"></circle>
                            <circle id="Oval" fill="#FFE15A" fill-rule="nonzero" cx="75.69" cy="4.691" r="4.414"></circle>
                            <circle id="Oval" fill="#FFE15A" fill-rule="nonzero" cx="5.07" cy="40.001" r="4.414"></circle>
                            <circle id="Oval" fill="#FFE15A" fill-rule="nonzero" cx="75.69" cy="40.001" r="4.414"></circle>
                            <circle id="Oval" fill="#FFE15A" fill-rule="nonzero" cx="40.38" cy="4.691" r="4.414"></circle>
                            <circle id="Oval" fill="#FFE15A" fill-rule="nonzero" cx="66.88" cy="72.551" r="4.414"></circle>
                            <circle id="Oval" fill="#FFE15A" fill-rule="nonzero" cx="14.4" cy="72.551" r="4.414"></circle>
                        </g>
                        <g id="Group" stroke-width="1" fill="none" fill-rule="evenodd" transform="translate(164.000000, 147.000000)">
                            <path d="M27.149,18.763 L27.149,26.365 C27.149,29.509 24.591,32.067 21.447,32.067 C18.303,32.067 15.745,29.509 15.745,26.365 L15.745,18.763 L27.149,18.763" id="Shape" fill="#41479B" fill-rule="nonzero"></path>
                            <path d="M27.149,0.741 L27.149,8.343 C27.149,11.487 24.591,14.045 21.447,14.045 C18.303,14.045 15.745,11.487 15.745,8.343 L15.745,0.741 L27.149,0.741" id="Shape" fill="#41479B" fill-rule="nonzero"></path>
                            <path d="M27.149,36.97 L27.149,44.572 C27.149,47.716 24.591,50.274 21.447,50.274 C18.303,50.274 15.745,47.716 15.745,44.572 L15.745,36.97 L27.149,36.97" id="Shape" fill="#41479B" fill-rule="nonzero"></path>
                            <path d="M42.506,18.763 L42.506,26.365 C42.506,29.509 39.948,32.067 36.804,32.067 C33.66,32.067 31.102,29.509 31.102,26.365 L31.102,18.763 L42.506,18.763" id="Shape" fill="#41479B" fill-rule="nonzero"></path>
                            <path d="M11.794,18.763 L11.794,26.365 C11.794,29.509 9.236,32.067 6.092,32.067 C2.948,32.067 0.39,29.509 0.39,26.365 L0.39,18.763 L11.794,18.763" id="Shape" fill="#41479B" fill-rule="nonzero"></path>
                        </g>
                    </g>
                </g>
            </g>
            <g id="Group-2" transform="translate(6.000000, 0.000000)">
                <mask id="mask-4" fill="white">
                    <use xlink:href="#path-3"></use>
                </mask>
                <g id="Triangle-3"></g>
                <g id="brazil-(1)" mask="url(#mask-4)">
                    <g transform="translate(-1.000000, -1.000000)">
                        <path d="M503.172,335.725 L8.828,335.725 C3.953,335.725 0,331.772 0,326.897 L0,9.104 C0,4.229 3.953,0.276 8.828,0.276 L503.173,0.276 C508.048,0.276 512.001,4.229 512.001,9.104 L512.001,326.897 C512,331.773 508.047,335.725 503.172,335.725 Z" id="Shape" fill="#73AF00" fill-rule="nonzero"></path>
                        <path d="M251.41,47.209 L65.354,160.46 C59.703,163.899 59.703,172.101 65.354,175.541 L251.41,288.793 C254.229,290.509 257.77,290.509 260.59,288.793 L446.647,175.542 C452.298,172.103 452.298,163.901 446.647,160.461 L260.59,47.209 C257.771,45.493 254.229,45.493 251.41,47.209 Z" id="Shape" fill="#FFE15A" fill-rule="nonzero"></path>
                        <circle id="Oval" fill="#41479B" fill-rule="nonzero" cx="256" cy="168.001" r="70.62"></circle>
                        <g id="Group" stroke-width="1" fill="none" fill-rule="evenodd" transform="translate(187.000000, 131.000000)">
                            <path d="M8.401,0.874 C5.069,6.452 2.496,12.514 0.796,18.951 C39.945,16.005 97.858,26.957 134.718,62.724 C137.124,56.583 138.712,50.041 139.308,43.202 C101.247,11.169 48.628,-0.222 8.401,0.874 Z" id="Shape" fill="#F5F5F5" fill-rule="nonzero"></path>
                            <path d="M71.925,61.1 L73.805,66.738 L79.748,66.784 C80.517,66.79 80.836,67.772 80.218,68.229 L75.437,71.76 L77.23,77.426 C77.462,78.16 76.626,78.767 76.001,78.319 L71.166,74.863 L66.331,78.319 C65.705,78.767 64.87,78.16 65.102,77.426 L66.895,71.76 L62.114,68.229 C61.495,67.772 61.814,66.79 62.583,66.784 L68.526,66.738 L70.406,61.1 C70.649,60.37 71.681,60.37 71.925,61.1 Z" id="Shape" fill="#F5F5F5" fill-rule="nonzero"></path>
                            <path d="M95.024,75.685 L95.833,78.111 L98.391,78.131 C98.722,78.133 98.86,78.556 98.593,78.753 L96.535,80.272 L97.306,82.711 C97.406,83.027 97.047,83.288 96.777,83.095 L94.696,81.608 L92.615,83.095 C92.346,83.288 91.986,83.027 92.086,82.711 L92.857,80.272 L90.799,78.753 C90.533,78.557 90.67,78.134 91.001,78.131 L93.559,78.111 L94.368,75.685 C94.474,75.37 94.919,75.37 95.024,75.685 Z" id="Shape" fill="#F5F5F5" fill-rule="nonzero"></path>
                            <path d="M61.938,50.39 L62.747,52.816 L65.305,52.836 C65.636,52.838 65.774,53.261 65.507,53.458 L63.449,54.977 L64.22,57.416 C64.32,57.732 63.961,57.993 63.691,57.8 L61.61,56.313 L59.529,57.8 C59.26,57.993 58.9,57.732 59,57.416 L59.771,54.977 L57.713,53.458 C57.447,53.262 57.584,52.839 57.915,52.836 L60.473,52.816 L61.282,50.39 C61.388,50.076 61.833,50.076 61.938,50.39 Z" id="Shape" fill="#F5F5F5" fill-rule="nonzero"></path>
                            <path d="M17.13,47.448 L17.939,49.874 L20.497,49.894 C20.828,49.896 20.966,50.319 20.699,50.516 L18.641,52.035 L19.412,54.474 C19.512,54.79 19.153,55.051 18.883,54.858 L16.802,53.371 L14.721,54.858 C14.452,55.051 14.092,54.79 14.192,54.474 L14.963,52.035 L12.905,50.516 C12.639,50.32 12.776,49.897 13.107,49.894 L15.665,49.874 L16.474,47.448 C16.581,47.134 17.025,47.134 17.13,47.448 Z" id="Shape" fill="#F5F5F5" fill-rule="nonzero"></path>
                            <path d="M54.614,74.847 L55.423,77.273 L57.981,77.293 C58.312,77.295 58.45,77.718 58.183,77.915 L56.125,79.434 L56.896,81.873 C56.996,82.189 56.637,82.45 56.367,82.257 L54.286,80.77 L52.205,82.257 C51.936,82.45 51.576,82.189 51.676,81.873 L52.447,79.434 L50.389,77.915 C50.123,77.719 50.26,77.296 50.591,77.293 L53.149,77.273 L53.958,74.847 C54.065,74.534 54.51,74.534 54.614,74.847 Z" id="Shape" fill="#F5F5F5" fill-rule="nonzero"></path>
                            <path d="M33.99,45.755 L34.652,47.739 L36.744,47.756 C37.014,47.758 37.127,48.104 36.91,48.265 L35.227,49.507 L35.858,51.501 C35.94,51.759 35.646,51.973 35.425,51.815 L33.723,50.599 L32.021,51.815 C31.8,51.973 31.507,51.759 31.588,51.501 L32.219,49.507 L30.536,48.265 C30.319,48.104 30.43,47.758 30.702,47.756 L32.794,47.739 L33.456,45.755 C33.541,45.498 33.904,45.498 33.99,45.755 Z" id="Shape" fill="#F5F5F5" fill-rule="nonzero"></path>
                            <path d="M96.819,4.794 L97.647,7.276 L100.263,7.296 C100.602,7.298 100.742,7.731 100.469,7.932 L98.365,9.486 L99.154,11.981 C99.257,12.304 98.888,12.571 98.613,12.374 L96.484,10.852 L94.355,12.374 C94.079,12.572 93.712,12.303 93.814,11.981 L94.603,9.486 L92.499,7.932 C92.226,7.731 92.367,7.299 92.705,7.296 L95.321,7.276 L96.149,4.794 C96.257,4.472 96.712,4.472 96.819,4.794 Z" id="Shape" fill="#F5F5F5" fill-rule="nonzero"></path>
                            <path d="M20.012,33.617 L20.674,35.601 L22.766,35.618 C23.036,35.62 23.149,35.966 22.932,36.127 L21.249,37.369 L21.88,39.363 C21.962,39.621 21.668,39.835 21.447,39.677 L19.745,38.461 L18.043,39.677 C17.822,39.835 17.529,39.621 17.61,39.363 L18.241,37.369 L16.558,36.127 C16.341,35.966 16.452,35.621 16.724,35.618 L18.816,35.601 L19.478,33.617 C19.563,33.36 19.926,33.36 20.012,33.617 Z" id="Shape" fill="#F5F5F5" fill-rule="nonzero"></path>
                            <path d="M30.112,61.581 L31.114,64.587 L34.282,64.611 C34.692,64.614 34.862,65.137 34.532,65.381 L31.983,67.263 L32.939,70.283 C33.063,70.674 32.618,70.998 32.284,70.759 L29.706,68.917 L27.128,70.759 C26.795,70.997 26.349,70.674 26.473,70.283 L27.429,67.263 L24.88,65.381 C24.55,65.137 24.72,64.614 25.13,64.611 L28.298,64.587 L29.3,61.581 C29.433,61.193 29.983,61.193 30.112,61.581 Z" id="Shape" fill="#F5F5F5" fill-rule="nonzero"></path>
                            <path d="M107.903,76.315 L108.533,78.206 L110.526,78.221 C110.784,78.223 110.891,78.552 110.684,78.705 L109.081,79.889 L109.682,81.789 C109.76,82.035 109.48,82.238 109.269,82.088 L107.648,80.929 L106.026,82.088 C105.816,82.238 105.536,82.035 105.613,81.789 L106.214,79.889 L104.611,78.705 C104.404,78.552 104.511,78.223 104.769,78.221 L106.762,78.206 L107.392,76.315 C107.475,76.07 107.822,76.07 107.903,76.315 Z" id="Shape" fill="#F5F5F5" fill-rule="nonzero"></path>
                            <path d="M114.877,61.885 L115.686,64.311 L118.244,64.331 C118.575,64.333 118.713,64.756 118.446,64.953 L116.388,66.472 L117.159,68.911 C117.259,69.227 116.9,69.488 116.63,69.295 L114.549,67.808 L112.468,69.295 C112.199,69.488 111.839,69.227 111.939,68.911 L112.71,66.472 L110.652,64.953 C110.386,64.757 110.523,64.334 110.854,64.331 L113.412,64.311 L114.221,61.885 C114.327,61.57 114.772,61.57 114.877,61.885 Z" id="Shape" fill="#F5F5F5" fill-rule="nonzero"></path>
                        </g>
                    </g>
                </g>
            </g>
        </g>
    </g>
</svg>